<svg width="136" height="54" viewBox="0 0 136 54" fill="none" xmlns="http://www.w3.org/2000/svg">
<circle cx="5" cy="5" r="5" fill="#FFEB3B"/>
<circle cx="33" cy="5" r="5" fill="#FFEB3B"/>
<circle cx="19" cy="5" r="5" fill="#FFEB3B"/>
<circle cx="89" cy="5" r="5" fill="#FFEB3B"/>
<circle cx="117" cy="5" r="5" fill="#FFEB3B"/>
<circle cx="131" cy="5" r="5" fill="#FFEB3B"/>
<circle cx="103" cy="5" r="5" fill="#FFEB3B"/>
<circle cx="47" cy="5" r="5" fill="#FFEB3B"/>
<circle cx="75" cy="5" r="5" fill="#FFEB3B"/>
<circle cx="61" cy="5" r="5" fill="#FFEB3B"/>
<circle cx="5" cy="49" r="5" fill="#FFEB3B"/>
<circle cx="33" cy="49" r="5" fill="#FFEB3B"/>
<circle cx="19" cy="49" r="5" fill="#FFEB3B"/>
<circle cx="89" cy="49" r="5" fill="#FFEB3B"/>
<circle cx="117" cy="49" r="5" fill="#FFEB3B"/>
<circle cx="131" cy="49" r="5" fill="#FFEB3B"/>
<circle cx="103" cy="49" r="5" fill="#FFEB3B"/>
<circle cx="47" cy="49" r="5" fill="#FFEB3B"/>
<circle cx="75" cy="49" r="5" fill="#FFEB3B"/>
<circle cx="61" cy="49" r="5" fill="#FFEB3B"/>
</svg>
