<svg id="wave" style="transform:rotate(180deg); transition: 0.3s" viewBox="0 0 1440 110" version="1.1" xmlns="http://www.w3.org/2000/svg"><defs><linearGradient id="sw-gradient-0" x1="0" x2="0" y1="1" y2="0"><stop stop-color="rgba(55.866, 157.969, 203.085, 1)" offset="0%"></stop><stop stop-color="rgba(208.371, 240.71, 255, 1)" offset="100%"></stop></linearGradient></defs><path style="transform:translate(0, 0px); opacity:1" fill="url(#sw-gradient-0)" d="M0,11L40,16.5C80,22,160,33,240,44C320,55,400,66,480,66C560,66,640,55,720,42.2C800,29,880,15,960,7.3C1040,0,1120,0,1200,9.2C1280,18,1360,37,1440,38.5C1520,40,1600,26,1680,20.2C1760,15,1840,18,1920,20.2C2000,22,2080,22,2160,29.3C2240,37,2320,51,2400,49.5C2480,48,2560,29,2640,25.7C2720,22,2800,33,2880,31.2C2960,29,3040,15,3120,20.2C3200,26,3280,51,3360,58.7C3440,66,3520,55,3600,49.5C3680,44,3760,44,3840,44C3920,44,4000,44,4080,47.7C4160,51,4240,59,4320,53.2C4400,48,4480,29,4560,22C4640,15,4720,18,4800,33C4880,48,4960,73,5040,86.2C5120,99,5200,99,5280,84.3C5360,70,5440,40,5520,27.5C5600,15,5680,18,5720,20.2L5760,22L5760,110L5720,110C5680,110,5600,110,5520,110C5440,110,5360,110,5280,110C5200,110,5120,110,5040,110C4960,110,4880,110,4800,110C4720,110,4640,110,4560,110C4480,110,4400,110,4320,110C4240,110,4160,110,4080,110C4000,110,3920,110,3840,110C3760,110,3680,110,3600,110C3520,110,3440,110,3360,110C3280,110,3200,110,3120,110C3040,110,2960,110,2880,110C2800,110,2720,110,2640,110C2560,110,2480,110,2400,110C2320,110,2240,110,2160,110C2080,110,2000,110,1920,110C1840,110,1760,110,1680,110C1600,110,1520,110,1440,110C1360,110,1280,110,1200,110C1120,110,1040,110,960,110C880,110,800,110,720,110C640,110,560,110,480,110C400,110,320,110,240,110C160,110,80,110,40,110L0,110Z"></path><defs><linearGradient id="sw-gradient-1" x1="0" x2="0" y1="1" y2="0"><stop stop-color="rgba(41, 170, 227, 1)" offset="0%"></stop><stop stop-color="rgba(34.793, 104.14, 134.781, 1)" offset="100%"></stop></linearGradient></defs><path style="transform:translate(0, 50px); opacity:0.9" fill="url(#sw-gradient-1)" d="M0,88L40,77C80,66,160,44,240,34.8C320,26,400,29,480,34.8C560,40,640,48,720,55C800,62,880,70,960,77C1040,84,1120,92,1200,82.5C1280,73,1360,48,1440,33C1520,18,1600,15,1680,25.7C1760,37,1840,62,1920,67.8C2000,73,2080,59,2160,56.8C2240,55,2320,66,2400,75.2C2480,84,2560,92,2640,93.5C2720,95,2800,92,2880,82.5C2960,73,3040,59,3120,45.8C3200,33,3280,22,3360,16.5C3440,11,3520,11,3600,16.5C3680,22,3760,33,3840,33C3920,33,4000,22,4080,31.2C4160,40,4240,70,4320,73.3C4400,77,4480,55,4560,40.3C4640,26,4720,18,4800,18.3C4880,18,4960,26,5040,40.3C5120,55,5200,77,5280,80.7C5360,84,5440,70,5520,55C5600,40,5680,26,5720,18.3L5760,11L5760,110L5720,110C5680,110,5600,110,5520,110C5440,110,5360,110,5280,110C5200,110,5120,110,5040,110C4960,110,4880,110,4800,110C4720,110,4640,110,4560,110C4480,110,4400,110,4320,110C4240,110,4160,110,4080,110C4000,110,3920,110,3840,110C3760,110,3680,110,3600,110C3520,110,3440,110,3360,110C3280,110,3200,110,3120,110C3040,110,2960,110,2880,110C2800,110,2720,110,2640,110C2560,110,2480,110,2400,110C2320,110,2240,110,2160,110C2080,110,2000,110,1920,110C1840,110,1760,110,1680,110C1600,110,1520,110,1440,110C1360,110,1280,110,1200,110C1120,110,1040,110,960,110C880,110,800,110,720,110C640,110,560,110,480,110C400,110,320,110,240,110C160,110,80,110,40,110L0,110Z"></path></svg>